<?xml version="1.0" encoding="UTF-8"?>
<svg xmlns="http://www.w3.org/2000/svg" xmlns:xlink="http://www.w3.org/1999/xlink" viewBox="0 0 21 21" width="21px" height="21px">
<g id="surface55885575">
<path style=" stroke:none;fill-rule:nonzero;fill:rgb(40.000001%,57.647061%,75.686276%);fill-opacity:1;" d="M 17.113281 20.578125 L 3.886719 20.578125 C 1.972656 20.578125 0.421875 19.027344 0.421875 17.113281 L 0.421875 3.886719 C 0.421875 1.972656 1.972656 0.421875 3.886719 0.421875 L 17.113281 0.421875 C 19.027344 0.421875 20.578125 1.972656 20.578125 3.886719 L 20.578125 17.113281 C 20.578125 19.027344 19.027344 20.578125 17.113281 20.578125 Z M 17.113281 20.578125 "/>
<path style=" stroke:none;fill-rule:nonzero;fill:rgb(93.333334%,92.54902%,85.09804%);fill-opacity:1;" d="M 16.777344 10.199219 C 16.777344 9.152344 16.367188 8.203125 15.703125 7.496094 C 15.828125 6.804688 15.8125 5.828125 15.53125 4.988281 C 14.121094 4.988281 12.976562 6.074219 12.792969 6.246094 L 8.757812 6.246094 C 8.574219 6.074219 7.492188 4.988281 6.082031 4.988281 C 5.832031 5.742188 5.738281 6.636719 5.816406 7.285156 C 5.023438 8.003906 4.523438 9.042969 4.523438 10.199219 C 4.523438 12.375 6.285156 14.121094 8.460938 14.121094 L 9.234375 14.121094 C 8.601562 14.410156 8.085938 14.992188 7.972656 15.695312 C 7.34375 15.695312 6.441406 15.640625 6.027344 15.015625 C 5.25 13.855469 4.894531 13.855469 4.507812 13.855469 C 4.121094 13.855469 4.089844 14.242188 4.476562 14.628906 C 4.863281 15.015625 4.863281 15.015625 5.25 15.792969 C 5.570312 16.429688 6.398438 16.957031 7.972656 16.957031 L 7.972656 18.847656 L 13.328125 18.847656 L 13.328125 16.0625 C 13.328125 15.207031 12.796875 14.457031 12.066406 14.121094 L 12.839844 14.121094 C 15.015625 14.121094 16.777344 12.375 16.777344 10.199219 Z M 16.777344 10.199219 "/>
<path style=" stroke:none;fill-rule:nonzero;fill:rgb(12.156863%,12.941177%,16.862746%);fill-opacity:1;" d="M 13.328125 19.003906 C 13.242188 19.003906 13.171875 18.933594 13.171875 18.847656 L 13.171875 16.0625 C 13.171875 15.296875 12.710938 14.589844 12 14.265625 C 11.933594 14.234375 11.898438 14.160156 11.914062 14.089844 C 11.929688 14.015625 11.992188 13.964844 12.066406 13.964844 L 12.839844 13.964844 C 14.925781 13.964844 16.621094 12.273438 16.621094 10.199219 C 16.621094 9.230469 16.253906 8.3125 15.585938 7.605469 C 15.554688 7.570312 15.539062 7.519531 15.546875 7.46875 C 15.652344 6.886719 15.667969 5.980469 15.417969 5.148438 C 14.257812 5.199219 13.277344 6.007812 12.902344 6.359375 C 12.871094 6.386719 12.832031 6.40625 12.792969 6.40625 L 8.757812 6.40625 C 8.71875 6.40625 8.679688 6.390625 8.648438 6.363281 L 8.621094 6.335938 C 7.652344 5.414062 6.785156 5.175781 6.195312 5.148438 C 5.988281 5.828125 5.898438 6.648438 5.972656 7.265625 C 5.976562 7.316406 5.957031 7.367188 5.921875 7.402344 C 5.132812 8.117188 4.679688 9.136719 4.679688 10.199219 C 4.679688 12.273438 6.375 13.964844 8.460938 13.964844 L 9.234375 13.964844 C 9.304688 13.964844 9.371094 14.015625 9.386719 14.089844 C 9.402344 14.160156 9.367188 14.234375 9.296875 14.265625 C 8.675781 14.550781 8.226562 15.109375 8.128906 15.722656 C 8.117188 15.800781 8.050781 15.855469 7.972656 15.855469 C 7.238281 15.855469 6.335938 15.769531 5.894531 15.105469 C 5.167969 14.011719 4.859375 14.011719 4.507812 14.011719 C 4.464844 14.011719 4.386719 14.019531 4.367188 14.070312 C 4.339844 14.132812 4.375 14.308594 4.585938 14.519531 C 4.992188 14.925781 5 14.941406 5.390625 15.722656 C 5.738281 16.417969 6.65625 16.800781 7.972656 16.800781 C 8.058594 16.800781 8.128906 16.871094 8.128906 16.957031 L 8.128906 18.847656 C 8.128906 18.933594 8.058594 19.003906 7.972656 19.003906 C 7.886719 19.003906 7.816406 18.933594 7.816406 18.847656 L 7.816406 17.113281 C 5.988281 17.070312 5.335938 16.316406 5.109375 15.863281 C 4.734375 15.109375 4.734375 15.109375 4.363281 14.742188 C 4.089844 14.46875 3.980469 14.171875 4.074219 13.949219 C 4.140625 13.789062 4.296875 13.699219 4.507812 13.699219 C 5.007812 13.699219 5.390625 13.785156 6.15625 14.929688 C 6.492188 15.4375 7.214844 15.527344 7.84375 15.539062 C 7.957031 15.050781 8.253906 14.605469 8.671875 14.28125 L 8.460938 14.28125 C 6.203125 14.28125 4.363281 12.449219 4.363281 10.199219 C 4.363281 9.074219 4.832031 7.996094 5.652344 7.222656 C 5.585938 6.53125 5.691406 5.664062 5.933594 4.9375 C 5.953125 4.875 6.015625 4.828125 6.082031 4.828125 C 6.722656 4.828125 7.71875 5.050781 8.820312 6.089844 L 12.730469 6.089844 C 13.179688 5.675781 14.257812 4.828125 15.53125 4.828125 C 15.601562 4.828125 15.660156 4.875 15.683594 4.9375 C 15.976562 5.820312 15.972656 6.796875 15.871094 7.445312 C 16.558594 8.203125 16.9375 9.175781 16.9375 10.199219 C 16.9375 12.449219 15.097656 14.28125 12.839844 14.28125 L 12.621094 14.28125 C 13.160156 14.710938 13.484375 15.363281 13.484375 16.0625 L 13.484375 18.847656 C 13.484375 18.933594 13.414062 19.003906 13.328125 19.003906 Z M 13.328125 19.003906 "/>
<path style=" stroke:none;fill-rule:nonzero;fill:rgb(12.156863%,12.941177%,16.862746%);fill-opacity:1;" d="M 15.382812 19.003906 L 5.617188 19.003906 C 3.621094 19.003906 1.996094 17.378906 1.996094 15.382812 L 1.996094 5.617188 C 1.996094 3.621094 3.621094 1.996094 5.617188 1.996094 L 15.382812 1.996094 C 15.46875 1.996094 15.539062 2.066406 15.539062 2.152344 C 15.539062 2.238281 15.46875 2.308594 15.382812 2.308594 L 5.617188 2.308594 C 3.792969 2.308594 2.308594 3.792969 2.308594 5.617188 L 2.308594 15.382812 C 2.308594 17.207031 3.792969 18.691406 5.617188 18.691406 L 15.382812 18.691406 C 17.207031 18.691406 18.691406 17.207031 18.691406 15.382812 L 18.691406 10.65625 C 18.691406 10.570312 18.761719 10.5 18.847656 10.5 C 18.933594 10.5 19.003906 10.570312 19.003906 10.65625 L 19.003906 15.382812 C 19.003906 17.378906 17.378906 19.003906 15.382812 19.003906 Z M 15.382812 19.003906 "/>
<path style=" stroke:none;fill-rule:nonzero;fill:rgb(12.156863%,12.941177%,16.862746%);fill-opacity:1;" d="M 18.847656 10.027344 C 18.761719 10.027344 18.691406 9.957031 18.691406 9.871094 L 18.691406 7.824219 C 18.691406 7.734375 18.761719 7.664062 18.847656 7.664062 C 18.933594 7.664062 19.003906 7.734375 19.003906 7.824219 L 19.003906 9.871094 C 19.003906 9.957031 18.933594 10.027344 18.847656 10.027344 Z M 18.847656 10.027344 "/>
<path style=" stroke:none;fill-rule:nonzero;fill:rgb(12.156863%,12.941177%,16.862746%);fill-opacity:1;" d="M 18.847656 6.878906 C 18.761719 6.878906 18.691406 6.808594 18.691406 6.71875 L 18.691406 5.617188 C 18.691406 5.53125 18.761719 5.460938 18.847656 5.460938 C 18.933594 5.460938 19.003906 5.53125 19.003906 5.617188 L 19.003906 6.71875 C 19.003906 6.808594 18.933594 6.878906 18.847656 6.878906 Z M 18.847656 6.878906 "/>
<path style=" stroke:none;fill-rule:nonzero;fill:rgb(12.156863%,12.941177%,16.862746%);fill-opacity:1;" d="M 17.113281 20.894531 L 3.886719 20.894531 C 1.800781 20.894531 0.105469 19.199219 0.105469 17.113281 L 0.105469 3.886719 C 0.105469 1.800781 1.800781 0.105469 3.886719 0.105469 L 17.113281 0.105469 C 19.199219 0.105469 20.894531 1.800781 20.894531 3.886719 L 20.894531 17.113281 C 20.894531 19.199219 19.199219 20.894531 17.113281 20.894531 Z M 3.886719 0.734375 C 2.148438 0.734375 0.734375 2.148438 0.734375 3.886719 L 0.734375 17.113281 C 0.734375 18.851562 2.148438 20.265625 3.886719 20.265625 L 17.113281 20.265625 C 18.851562 20.265625 20.265625 18.851562 20.265625 17.113281 L 20.265625 3.886719 C 20.265625 2.148438 18.851562 0.734375 17.113281 0.734375 Z M 3.886719 0.734375 "/>
</g>
</svg>
