<?xml version="1.0" encoding="UTF-8"?>
<svg xmlns="http://www.w3.org/2000/svg" xmlns:xlink="http://www.w3.org/1999/xlink" viewBox="0 0 21 21" width="21px" height="21px">
<g id="surface62977801">
<path style=" stroke:none;fill-rule:nonzero;fill:rgb(0.784314%,53.333336%,81.960785%);fill-opacity:1;" d="M 2.265625 5.214844 L 2.292969 5.214844 C 3.765625 5.214844 4.683594 4.15625 4.683594 2.835938 C 4.65625 1.484375 3.765625 0.457031 2.320312 0.457031 C 0.871094 0.457031 -0.0742188 1.484375 -0.0742188 2.835938 C -0.0742188 4.15625 0.84375 5.214844 2.265625 5.214844 Z M -0.0742188 6.800781 L 4.683594 6.800781 L 4.683594 20.542969 L -0.0742188 20.542969 Z M 21.074219 11.820312 C 21.074219 9.046875 18.824219 6.800781 16.050781 6.800781 C 14.4375 6.800781 13.003906 7.5625 12.085938 8.746094 L 12.085938 6.800781 L 7.328125 6.800781 L 7.328125 20.542969 L 12.085938 20.542969 L 12.085938 12.613281 C 12.085938 11.445312 13.03125 10.5 14.199219 10.5 C 15.367188 10.5 16.316406 11.445312 16.316406 12.613281 L 16.316406 20.542969 L 21.074219 20.542969 C 21.074219 20.542969 21.074219 12.589844 21.074219 11.820312 Z M 21.074219 11.820312 "/>
</g>
</svg>
