<?xml version="1.0" encoding="UTF-8"?>
<svg xmlns="http://www.w3.org/2000/svg" xmlns:xlink="http://www.w3.org/1999/xlink" viewBox="0 0 21 21" width="21px" height="21px">
<g id="surface63118003">
<path style=" stroke:none;fill-rule:nonzero;fill:rgb(1.176471%,66.274512%,95.686275%);fill-opacity:1;" d="M 21.328125 3.539062 C 20.53125 3.890625 19.675781 4.128906 18.773438 4.238281 C 19.691406 3.691406 20.398438 2.824219 20.730469 1.796875 C 19.871094 2.300781 18.917969 2.671875 17.90625 2.867188 C 17.097656 2.007812 15.945312 1.476562 14.667969 1.476562 C 12.210938 1.476562 10.222656 3.449219 10.222656 5.878906 C 10.222656 6.222656 10.261719 6.558594 10.339844 6.882812 C 6.644531 6.699219 3.371094 4.945312 1.179688 2.28125 C 0.796875 2.929688 0.578125 3.691406 0.578125 4.496094 C 0.578125 6.027344 1.363281 7.371094 2.554688 8.164062 C 1.828125 8.140625 1.140625 7.941406 0.539062 7.613281 C 0.539062 7.628906 0.539062 7.648438 0.539062 7.667969 C 0.539062 9.804688 2.074219 11.582031 4.105469 11.988281 C 3.730469 12.089844 3.339844 12.144531 2.9375 12.144531 C 2.648438 12.144531 2.371094 12.113281 2.097656 12.0625 C 2.664062 13.808594 4.304688 15.085938 6.25 15.121094 C 4.726562 16.300781 2.8125 17.007812 0.730469 17.007812 C 0.371094 17.007812 0.0195312 16.988281 -0.328125 16.945312 C 1.636719 18.191406 3.972656 18.921875 6.480469 18.921875 C 14.65625 18.921875 19.125 12.210938 19.125 6.390625 C 19.125 6.199219 19.121094 6.007812 19.109375 5.820312 C 19.980469 5.203125 20.734375 4.425781 21.328125 3.539062 "/>
</g>
</svg>
