<svg width="85" height="35" viewBox="0 0 85 35" fill="none" xmlns="http://www.w3.org/2000/svg">
<path d="M10.9755 13.4692V19.5141H7.51088V13.4692L0 0H3.99085L9.24314 9.41874L14.4956 0H18.4864L10.9755 13.4692Z" fill="#1A2028"/>
<path d="M15.8223 19.4619H29.2367V23.0286H15.8223V19.4619Z" fill="#1A2028"/>
<path d="M72.0003 15.9236H79.3023C79.9148 15.9236 80.4728 15.6643 80.8783 15.2469C81.2838 14.8294 81.5356 14.2547 81.5356 13.6245C81.5356 12.9938 81.2838 12.4193 80.8783 12.0019C80.4728 11.5846 79.9148 11.3252 79.3023 11.3252H78.5892H72.0003V15.9236ZM35.9391 0.324753V15.9255H45.412V19.4922H32.4746V0.324753H35.9391ZM63.4476 19.4961L56.9032 5.18304L50.3589 19.4961H46.5814V19.4018L55.34 0.245728H58.4664L67.2251 19.4018V19.4961H63.4476ZM68.5357 7.75858V0.265802H78.5892C80.0635 0.265802 81.4047 0.887503 82.3775 1.8885L82.3842 1.89545C83.3565 2.89688 83.9605 4.27761 83.9605 5.79534C83.9605 7.02497 83.5663 8.16393 82.9024 9.08399C83.0505 9.20893 83.1927 9.34103 83.3279 9.48017C84.3595 10.5423 85.0003 12.0093 85.0003 13.6243C85.0003 15.2393 84.3595 16.7065 83.3279 17.7686C82.2962 18.8307 80.8711 19.4903 79.3023 19.4903H68.5357V9.54188V7.75858ZM78.5892 7.75858C79.1163 7.75858 79.5925 7.53967 79.9345 7.1875V7.18055C80.2807 6.8241 80.4959 6.33342 80.4959 5.79555C80.4959 5.25436 80.282 4.76305 79.938 4.40681C79.5919 4.05261 79.1147 3.83252 78.5892 3.83252H72.0003V7.75858H78.5892Z" fill="#1A2028"/>
<path fill-rule="evenodd" clip-rule="evenodd" d="M56.8105 19.4962H52.9219C52.9219 17.2853 54.6629 15.493 56.8105 15.493C58.9579 15.493 60.699 17.2853 60.699 19.4962H56.8105Z" fill="#0AB8B6"/>
<path d="M12.252 34.4137H14.3977C15.9431 34.4137 17.0024 33.46 17.0024 31.9947C17.0024 30.5298 15.9431 29.5759 14.3977 29.5759H12.252V34.4137ZM13.345 33.4945V30.4951H14.3436C15.2818 30.4951 15.8958 31.0687 15.8958 31.9947C15.8958 32.9208 15.2818 33.4945 14.3436 33.4945H13.345ZM19.5639 33.5153V32.3956H21.7569V31.5249H19.5639V30.4745H22.0472V29.5759H18.4775V34.4137H22.1349V33.5153H19.5639ZM27.0445 29.5759L25.5869 33.0315L24.1496 29.5759H22.9688L25.0067 34.4137H26.0864L28.1309 29.5759H27.0445ZM30.2604 33.5153V32.3956H32.4535V31.5249H30.2604V30.4745H32.7437V29.5759H29.174V34.4137H32.8315V33.5153H30.2604ZM34.3536 34.4137H37.8152V33.5013H35.4466V29.5759H34.3536V34.4137ZM41.2875 34.4967C42.7719 34.4967 43.8719 33.4391 43.8719 31.9947C43.8719 30.5504 42.7719 29.4931 41.2875 29.4931C39.7961 29.4931 38.7031 30.5573 38.7031 31.9947C38.7031 33.4323 39.7961 34.4967 41.2875 34.4967ZM41.2875 33.5429C40.444 33.5429 39.8097 32.914 39.8097 31.9947C39.8097 31.0756 40.444 30.4469 41.2875 30.4469C42.131 30.4469 42.7653 31.0756 42.7653 31.9947C42.7653 32.914 42.131 33.5429 41.2875 33.5429ZM47.3917 29.5759H45.347V34.4137H46.44V33.0799H47.3917C48.6535 33.0799 49.4429 32.4096 49.4429 31.3315C49.4429 30.2463 48.6535 29.5759 47.3917 29.5759ZM47.3308 32.1676H46.44V30.4882H47.3308C47.9989 30.4882 48.3362 30.7991 48.3362 31.3315C48.3362 31.8567 47.9989 32.1676 47.3308 32.1676ZM56.1936 34.4137L56.1802 29.5759H55.2813L53.5418 32.5822L51.7748 29.5759H50.8706V34.4137H51.8963V31.5734L53.2785 33.9021H53.771L55.1599 31.5109L55.1669 34.4137H56.1936ZM59.053 33.5153V32.3956H61.2461V31.5249H59.053V30.4745H61.5363V29.5759H57.9667V34.4137H61.6241V33.5153H59.053ZM66.3987 29.5759V32.5131L64.0504 29.5759H63.1462V34.4137H64.226V31.4765L66.5809 34.4137H67.4783V29.5759H66.3987ZM70.2286 34.4137H71.322V30.4882H72.8334V29.5759H68.7172V30.4882H70.2286V34.4137Z" fill="#1A2028"/>
</svg>
